{
  "accessors": [
    {
      "bufferView": 2,
      "componentType": 5126,
      "count": 65532,
      "max": [
        92.940048217773438,
        -33.195667266845703,
        26.535097122192383
      ],
      "min": [
        -59.271987915039062,
        -170.66134643554688,
        -145.78309631347656
      ],
      "type": "VEC3"
    },
    {
      "bufferView": 2,
      "byteOffset": 786384,
      "componentType": 5126,
      "count": 65532,
      "max": [
        1,
        1,
        0.98614519834518433
      ],
      "min": [
        -1,
        -1,
        -1
      ],
      "type": "VEC3"
    },
    {
      "bufferView": 3,
      "componentType": 5126,
      "count": 65532,
      "max": [
        0.99633306264877319,
        0.97816699743270874,
        0.99102562665939331,
        1
      ],
      "min": [
        -0.99997800588607788,
        -0.99924439191818237,
        -0.99978762865066528,
        1
      ],
      "type": "VEC4"
    },
    {
      "bufferView": 1,
      "componentType": 5126,
      "count": 65532,
      "max": [
        0.5660938024520874,
        0.9924393892288208
      ],
      "min": [
        0.00756063312292099,
        0.63726937770843506
      ],
      "type": "VEC2"
    },
    {
      "bufferView": 0,
      "componentType": 5125,
      "count": 375030,
      "max": [
        65531
      ],
      "min": [
        0
      ],
      "type": "SCALAR"
    },
    {
      "bufferView": 2,
      "byteOffset": 1572768,
      "componentType": 5126,
      "count": 65532,
      "max": [
        60.132499694824219,
        57.968002319335938,
        102.4049072265625
      ],
      "min": [
        -62.367542266845703,
        -170.64888000488281,
        -144.9649658203125
      ],
      "type": "VEC3"
    },
    {
      "bufferView": 2,
      "byteOffset": 2359152,
      "componentType": 5126,
      "count": 65532,
      "max": [
        1,
        0.99898570775985718,
        0.99992650747299194
      ],
      "min": [
        -1,
        -1,
        -1
      ],
      "type": "VEC3"
    },
    {
      "bufferView": 3,
      "byteOffset": 1048512,
      "componentType": 5126,
      "count": 65532,
      "max": [
        0.9997856616973877,
        0.97816699743270874,
        0.99333071708679199,
        1
      ],
      "min": [
        -0.97434753179550171,
        -0.97293782234191895,
        -0.87146127223968506,
        1
      ],
      "type": "VEC4"
    },
    {
      "bufferView": 1,
      "byteOffset": 524256,
      "componentType": 5126,
      "count": 65532,
      "max": [
        0.87369388341903687,
        0.9924393892288208
      ],
      "min": [
        0.27218279242515564,
        0.60773009061813354
      ],
      "type": "VEC2"
    },
    {
      "bufferView": 0,
      "byteOffset": 1500120,
      "componentType": 5125,
      "count": 356445,
      "max": [
        65531
      ],
      "min": [
        0
      ],
      "type": "SCALAR"
    },
    {
      "bufferView": 2,
      "byteOffset": 3145536,
      "componentType": 5126,
      "count": 65532,
      "max": [
        80.902984619140625,
        6.5204401016235352,
        127.02916717529297
      ],
      "min": [
        -94.567550659179688,
        -141.98782348632812,
        -74.964935302734375
      ],
      "type": "VEC3"
    },
    {
      "bufferView": 2,
      "byteOffset": 3931920,
      "componentType": 5126,
      "count": 65532,
      "max": [
        1,
        0.99695152044296265,
        1
      ],
      "min": [
        -0.99999654293060303,
        -1,
        -1
      ],
      "type": "VEC3"
    },
    {
      "bufferView": 3,
      "byteOffset": 2097024,
      "componentType": 5126,
      "count": 65532,
      "max": [
        0.99999809265136719,
        0.99905216693878174,
        0.99948275089263916,
        1
      ],
      "min": [
        -0.95457333326339722,
        -0.99991106986999512,
        -0.99927985668182373,
        -1
      ],
      "type": "VEC4"
    },
    {
      "bufferView": 1,
      "byteOffset": 1048512,
      "componentType": 5126,
      "count": 65532,
      "max": [
        0.88703459501266479,
        0.98978829383850098
      ],
      "min": [
        0.15681731700897217,
        0.13955622911453247
      ],
      "type": "VEC2"
    },
    {
      "bufferView": 0,
      "byteOffset": 2925900,
      "componentType": 5125,
      "count": 361275,
      "max": [
        65531
      ],
      "min": [
        0
      ],
      "type": "SCALAR"
    },
    {
      "bufferView": 2,
      "byteOffset": 4718304,
      "componentType": 5126,
      "count": 65532,
      "max": [
        92.366203308105469,
        59.00762939453125,
        127.41874694824219
      ],
      "min": [
        -97.293975830078125,
        -170.29248046875,
        -125.48149871826172
      ],
      "type": "VEC3"
    },
    {
      "bufferView": 2,
      "byteOffset": 5504688,
      "componentType": 5126,
      "count": 65532,
      "max": [
        1,
        0.99891752004623413,
        1
      ],
      "min": [
        -1,
        -1,
        -0.99962067604064941
      ],
      "type": "VEC3"
    },
    {
      "bufferView": 3,
      "byteOffset": 3145536,
      "componentType": 5126,
      "count": 65532,
      "max": [
        0.99998897314071655,
        0.96260160207748413,
        0.99999606609344482,
        1
      ],
      "min": [
        -0.99986761808395386,
        -0.99998778104782104,
        -0.99752509593963623,
        1
      ],
      "type": "VEC4"
    },
    {
      "bufferView": 1,
      "byteOffset": 1572768,
      "componentType": 5126,
      "count": 65532,
      "max": [
        0.99013453722000122,
        0.96219682693481445
      ],
      "min": [
        0.12853077054023743,
        0.12872052192687988
      ],
      "type": "VEC2"
    },
    {
      "bufferView": 0,
      "byteOffset": 4371000,
      "componentType": 5125,
      "count": 367800,
      "max": [
        65531
      ],
      "min": [
        0
      ],
      "type": "SCALAR"
    },
    {
      "bufferView": 2,
      "byteOffset": 6291072,
      "componentType": 5126,
      "count": 65532,
      "max": [
        67.132499694824219,
        55.696628570556641,
        123.71968078613281
      ],
      "min": [
        -97.288276672363281,
        -151.062744140625,
        -93.720146179199219
      ],
      "type": "VEC3"
    },
    {
      "bufferView": 2,
      "byteOffset": 7077456,
      "componentType": 5126,
      "count": 65532,
      "max": [
        0.99990159273147583,
        1,
        0.99969196319580078
      ],
      "min": [
        -0.99999994039535522,
        -1,
        -1
      ],
      "type": "VEC3"
    },
    {
      "bufferView": 3,
      "byteOffset": 4194048,
      "componentType": 5126,
      "count": 65532,
      "max": [
        0.99059188365936279,
        0.99999541044235229,
        0.99809539318084717,
        1
      ],
      "min": [
        -0.99826771020889282,
        -1,
        -0.99991405010223389,
        1
      ],
      "type": "VEC4"
    },
    {
      "bufferView": 1,
      "byteOffset": 2097024,
      "componentType": 5126,
      "count": 65532,
      "max": [
        0.97165048122406006,
        0.87146925926208496
      ],
      "min": [
        0.03024253249168396,
        0.13235586881637573
      ],
      "type": "VEC2"
    },
    {
      "bufferView": 0,
      "byteOffset": 5842200,
      "componentType": 5125,
      "count": 371919,
      "max": [
        65531
      ],
      "min": [
        0
      ],
      "type": "SCALAR"
    },
    {
      "bufferView": 2,
      "byteOffset": 7863840,
      "componentType": 5126,
      "count": 65532,
      "max": [
        9.73248291015625,
        60.656787872314453,
        109.55556488037109
      ],
      "min": [
        -97.293975830078125,
        -141.33421325683594,
        -74.264938354492188
      ],
      "type": "VEC3"
    },
    {
      "bufferView": 2,
      "byteOffset": 8650224,
      "componentType": 5126,
      "count": 65532,
      "max": [
        1,
        1,
        1
      ],
      "min": [
        -1,
        -1,
        -1
      ],
      "type": "VEC3"
    },
    {
      "bufferView": 3,
      "byteOffset": 5242560,
      "componentType": 5126,
      "count": 65532,
      "max": [
        0.99850857257843018,
        0.99999713897705078,
        0.99997550249099731,
        1
      ],
      "min": [
        -0.99998486042022705,
        -0.99998617172241211,
        -0.99999570846557617,
        -1
      ],
      "type": "VEC4"
    },
    {
      "bufferView": 1,
      "byteOffset": 2621280,
      "componentType": 5126,
      "count": 65532,
      "max": [
        0.92974323034286499,
        0.61440771818161011
      ],
      "min": [
        0.00756063312292099,
        0.0021489262580871582
      ],
      "type": "VEC2"
    },
    {
      "bufferView": 0,
      "byteOffset": 7329876,
      "componentType": 5125,
      "count": 367431,
      "max": [
        65531
      ],
      "min": [
        0
      ],
      "type": "SCALAR"
    },
    {
      "bufferView": 2,
      "byteOffset": 9436608,
      "componentType": 5126,
      "count": 9534,
      "max": [
        5.7781004905700684,
        43.533100128173828,
        67.3321533203125
      ],
      "min": [
        -93.5445556640625,
        -122.36273193359375,
        -30.864921569824219
      ],
      "type": "VEC3"
    },
    {
      "bufferView": 2,
      "byteOffset": 9551016,
      "componentType": 5126,
      "count": 9534,
      "max": [
        1,
        1,
        1
      ],
      "min": [
        -1,
        -0.99999994039535522,
        -0.99997031688690186
      ],
      "type": "VEC3"
    },
    {
      "bufferView": 3,
      "byteOffset": 6291072,
      "componentType": 5126,
      "count": 9534,
      "max": [
        0.99993950128555298,
        0.99975425004959106,
        0.99997687339782715,
        1
      ],
      "min": [
        -0.99761444330215454,
        -0.99999237060546875,
        -0.99965810775756836,
        1
      ],
      "type": "VEC4"
    },
    {
      "bufferView": 1,
      "byteOffset": 3145536,
      "componentType": 5126,
      "count": 9534,
      "max": [
        0.97289401292800903,
        0.78830230236053467
      ],
      "min": [
        0.0075606321915984154,
        0.0025049448013305664
      ],
      "type": "VEC2"
    },
    {
      "bufferView": 0,
      "byteOffset": 8799600,
      "componentType": 5125,
      "count": 45372,
      "max": [
        9533
      ],
      "min": [
        0
      ],
      "type": "SCALAR"
    }
  ],
  "asset": {
    "extras": {
      "author": "tyrkir4 (https://sketchfab.com/tyrkir4)",
      "license": "CC-BY-NC-4.0 (http://creativecommons.org/licenses/by-nc/4.0/)",
      "source": "https://sketchfab.com/3d-models/workboot-3cba4b7bbf1641ecbeb4838899400f29",
      "title": "Workboot"
    },
    "generator": "Sketchfab-4.48.0",
    "version": "2.0"
  },
  "bufferViews": [
    {
      "buffer": 0,
      "byteLength": 8981088,
      "byteOffset": 0,
      "name": "floatBufferViews",
      "target": 34963
    },
    {
      "buffer": 0,
      "byteLength": 3221808,
      "byteOffset": 8981088,
      "byteStride": 8,
      "name": "floatBufferViews",
      "target": 34962
    },
    {
      "buffer": 0,
      "byteLength": 9665424,
      "byteOffset": 12202896,
      "byteStride": 12,
      "name": "floatBufferViews",
      "target": 34962
    },
    {
      "buffer": 0,
      "byteLength": 6443616,
      "byteOffset": 21868320,
      "byteStride": 16,
      "name": "floatBufferViews",
      "target": 34962
    }
  ],
  "buffers": [
    {
      "byteLength": 28311936,
      "uri": "scene.bin"
    }
  ],
  "images": [
    {
      "uri": "textures/material_0_baseColor.png"
    }
  ],
  "materials": [
    {
      "doubleSided": true,
      "emissiveFactor": [
        0,
        0,
        0
      ],
      "name": "material_0",
      "pbrMetallicRoughness": {
        "baseColorFactor": [
          1,
          1,
          1,
          1
        ],
        "baseColorTexture": {
          "index": 0,
          "texCoord": 0
        },
        "metallicFactor": 0,
        "roughnessFactor": 0.43765867479999998
      }
    }
  ],
  "meshes": [
    {
      "primitives": [
        {
          "attributes": {
            "NORMAL": 1,
            "POSITION": 0,
            "TANGENT": 2,
            "TEXCOORD_0": 3
          },
          "indices": 4,
          "material": 0,
          "mode": 4
        }
      ]
    },
    {
      "primitives": [
        {
          "attributes": {
            "NORMAL": 6,
            "POSITION": 5,
            "TANGENT": 7,
            "TEXCOORD_0": 8
          },
          "indices": 9,
          "material": 0,
          "mode": 4
        }
      ]
    },
    {
      "primitives": [
        {
          "attributes": {
            "NORMAL": 11,
            "POSITION": 10,
            "TANGENT": 12,
            "TEXCOORD_0": 13
          },
          "indices": 14,
          "material": 0,
          "mode": 4
        }
      ]
    },
    {
      "primitives": [
        {
          "attributes": {
            "NORMAL": 16,
            "POSITION": 15,
            "TANGENT": 17,
            "TEXCOORD_0": 18
          },
          "indices": 19,
          "material": 0,
          "mode": 4
        }
      ]
    },
    {
      "primitives": [
        {
          "attributes": {
            "NORMAL": 21,
            "POSITION": 20,
            "TANGENT": 22,
            "TEXCOORD_0": 23
          },
          "indices": 24,
          "material": 0,
          "mode": 4
        }
      ]
    },
    {
      "primitives": [
        {
          "attributes": {
            "NORMAL": 26,
            "POSITION": 25,
            "TANGENT": 27,
            "TEXCOORD_0": 28
          },
          "indices": 29,
          "material": 0,
          "mode": 4
        }
      ]
    },
    {
      "primitives": [
        {
          "attributes": {
            "NORMAL": 31,
            "POSITION": 30,
            "TANGENT": 32,
            "TEXCOORD_0": 33
          },
          "indices": 34,
          "material": 0,
          "mode": 4
        }
      ]
    }
  ],
  "nodes": [
    {
      "children": [
        1
      ],
      "name": "RootNode (gltf orientation matrix)",
      "rotation": [
        -0.70710678118654746,
        -0,
        -0,
        0.70710678118654757
      ]
    },
    {
      "children": [
        2
      ],
      "name": "RootNode (model correction matrix)"
    },
    {
      "children": [
        3,
        4,
        5,
        6,
        7,
        8,
        9
      ],
      "name": "Workboot.obj.cleaner.materialmerger.gles"
    },
    {
      "mesh": 0,
      "name": ""
    },
    {
      "mesh": 1,
      "name": ""
    },
    {
      "mesh": 2,
      "name": ""
    },
    {
      "mesh": 3,
      "name": ""
    },
    {
      "mesh": 4,
      "name": ""
    },
    {
      "mesh": 5,
      "name": ""
    },
    {
      "mesh": 6,
      "name": ""
    }
  ],
  "samplers": [
    {
      "magFilter": 9729,
      "minFilter": 9987,
      "wrapS": 10497,
      "wrapT": 10497
    }
  ],
  "scene": 0,
  "scenes": [
    {
      "name": "OSG_Scene",
      "nodes": [
        0
      ]
    }
  ],
  "textures": [
    {
      "sampler": 0,
      "source": 0
    }
  ]
}

